<svg width="110" height="122" viewBox="0 0 110 122" fill="none" xmlns="http://www.w3.org/2000/svg">
<path fill-rule="evenodd" clip-rule="evenodd" d="M25.0212 23.1034C20.6848 44.9378 16.4688 66.9728 12.21 88.6591L79.0462 89.1503C106.166 90.6495 105.522 57.6793 81.0245 57.6793C76.996 57.6793 72.6609 57.7525 68.1034 57.6793C54.1496 57.4553 57.8806 52.2088 63.3166 24.5788C66.2192 -3.64345 27.7798 -3.87557 25.0212 23.1034ZM14.3565 61.3239C16.9326 48.0631 19.5171 34.7639 21.9129 22.6982C23.142 11.0952 30.246 3.90876 38.4168 1.2068C41.4439 0.205832 44.6245 -0.17323 47.7119 0.0732188C50.8347 0.322502 53.8586 1.2068 56.5356 2.72858C63.0814 6.4498 67.573 13.8349 66.4383 24.8665L66.4197 25.0461L66.3986 25.1543C65.6081 29.1714 64.7541 33.1557 64.0103 36.6282C62.5989 43.215 61.6097 47.8288 61.5628 50.757C61.5165 53.6488 63.2016 54.4619 68.1794 54.5415C71.3058 54.5917 74.2136 54.5751 76.9962 54.559C77.6827 54.5554 78.3088 54.5511 81.0485 54.5511V54.5427C91.134 54.5427 97.7868 59.4855 100.762 65.778C102.005 68.4099 102.599 71.268 102.527 74.096C102.454 76.9585 101.709 79.8001 100.278 82.3637C96.9138 88.3925 89.8448 92.8568 78.9494 92.2874L8.40479 91.7685L9.12826 88.0832C11.8987 73.9747 13.1115 67.7323 14.3565 61.3239Z" fill="#FF7900"/>
<path fill-rule="evenodd" clip-rule="evenodd" d="M19.8215 96.9537H85.0369C88.4681 96.9537 91.5863 98.3565 93.846 100.616C96.1051 102.875 97.5079 105.994 97.5079 109.425C97.5079 112.856 96.1051 115.974 93.846 118.234C91.5863 120.493 88.4681 121.896 85.0369 121.896H19.8215C16.3905 121.896 13.2721 120.493 11.0125 118.234C8.75334 115.974 7.35059 112.856 7.35059 109.425C7.35059 105.994 8.75334 102.875 11.0125 100.616C13.2721 98.3565 16.3905 96.9537 19.8215 96.9537ZM85.0369 99.7729H19.8215C17.1689 99.7729 14.756 100.859 13.0057 102.609C11.2562 104.359 10.1696 106.772 10.1696 109.425C10.1696 112.078 11.2562 114.491 13.0057 116.241C14.7556 117.99 17.1689 119.077 19.8215 119.077H85.0369C87.6896 119.077 90.1028 117.99 91.8528 116.241C93.6023 114.491 94.6889 112.078 94.6889 109.425C94.6889 106.772 93.6023 104.359 91.8528 102.609C90.1024 100.859 87.6896 99.7729 85.0369 99.7729Z" fill="#FF7900"/>
<path fill-rule="evenodd" clip-rule="evenodd" d="M25.0212 23.1034C20.6848 44.9378 16.4688 66.9728 12.21 88.6591L79.0462 89.1503C106.166 90.6495 105.522 57.6793 81.0245 57.6793C76.996 57.6793 72.6609 57.7525 68.1034 57.6793C54.1496 57.4553 57.8806 52.2088 63.3166 24.5788C66.2192 -3.64345 27.7798 -3.87557 25.0212 23.1034ZM14.3565 61.3239C16.9326 48.0631 19.5171 34.7639 21.9129 22.6982C23.142 11.0952 30.246 3.90876 38.4168 1.2068C41.4439 0.205832 44.6245 -0.17323 47.7119 0.0732188C50.8347 0.322502 53.8586 1.2068 56.5356 2.72858C63.0814 6.4498 67.573 13.8349 66.4383 24.8665L66.4197 25.0461L66.3986 25.1543C65.6081 29.1714 64.7541 33.1557 64.0103 36.6282C62.5989 43.215 61.6097 47.8288 61.5628 50.757C61.5165 53.6488 63.2016 54.4619 68.1794 54.5415C71.3058 54.5917 74.2136 54.5751 76.9962 54.559C77.6827 54.5554 78.3088 54.5511 81.0485 54.5511V54.5427C91.134 54.5427 97.7868 59.4855 100.762 65.778C102.005 68.4099 102.599 71.268 102.527 74.096C102.454 76.9585 101.709 79.8001 100.278 82.3637C96.9138 88.3925 89.8448 92.8568 78.9494 92.2874L8.40479 91.7685L9.12826 88.0832C11.8987 73.9747 13.1115 67.7323 14.3565 61.3239Z" fill="#FF7900"/>
<path fill-rule="evenodd" clip-rule="evenodd" d="M19.8215 96.9537H85.0369C88.4681 96.9537 91.5863 98.3565 93.846 100.616C96.1051 102.875 97.5079 105.994 97.5079 109.425C97.5079 112.856 96.1051 115.974 93.846 118.234C91.5863 120.493 88.4681 121.896 85.0369 121.896H19.8215C16.3905 121.896 13.2721 120.493 11.0125 118.234C8.75334 115.974 7.35059 112.856 7.35059 109.425C7.35059 105.994 8.75334 102.875 11.0125 100.616C13.2721 98.3565 16.3905 96.9537 19.8215 96.9537ZM85.0369 99.7729H19.8215C17.1689 99.7729 14.756 100.859 13.0057 102.609C11.2562 104.359 10.1696 106.772 10.1696 109.425C10.1696 112.078 11.2562 114.491 13.0057 116.241C14.7556 117.99 17.1689 119.077 19.8215 119.077H85.0369C87.6896 119.077 90.1028 117.99 91.8528 116.241C93.6023 114.491 94.6889 112.078 94.6889 109.425C94.6889 106.772 93.6023 104.359 91.8528 102.609C90.1024 100.859 87.6896 99.7729 85.0369 99.7729Z" fill="#FF7900"/>
<path fill-rule="evenodd" clip-rule="evenodd" d="M19.8215 96.9537H85.0369C88.4681 96.9537 91.5863 98.3565 93.846 100.616C96.1051 102.875 97.5079 105.994 97.5079 109.425C97.5079 112.856 96.1051 115.974 93.846 118.234C91.5863 120.493 88.4681 121.896 85.0369 121.896H19.8215C16.3905 121.896 13.2721 120.493 11.0125 118.234C8.75334 115.974 7.35059 112.856 7.35059 109.425C7.35059 105.994 8.75334 102.875 11.0125 100.616C13.2721 98.3565 16.3905 96.9537 19.8215 96.9537ZM85.0369 99.7729H19.8215C17.1689 99.7729 14.756 100.859 13.0057 102.609C11.2562 104.359 10.1696 106.772 10.1696 109.425C10.1696 112.078 11.2562 114.491 13.0057 116.241C14.7556 117.99 17.1689 119.077 19.8215 119.077H85.0369C87.6896 119.077 90.1028 117.99 91.8528 116.241C93.6023 114.491 94.6889 112.078 94.6889 109.425C94.6889 106.772 93.6023 104.359 91.8528 102.609C90.1024 100.859 87.6896 99.7729 85.0369 99.7729Z" fill="#FF7900"/>
<path fill-rule="evenodd" clip-rule="evenodd" d="M19.8215 96.9537H85.0369C88.4681 96.9537 91.5863 98.3565 93.846 100.616C96.1051 102.875 97.5079 105.994 97.5079 109.425C97.5079 112.856 96.1051 115.974 93.846 118.234C91.5863 120.493 88.4681 121.896 85.0369 121.896H19.8215C16.3905 121.896 13.2721 120.493 11.0125 118.234C8.75334 115.974 7.35059 112.856 7.35059 109.425C7.35059 105.994 8.75334 102.875 11.0125 100.616C13.2721 98.3565 16.3905 96.9537 19.8215 96.9537ZM85.0369 99.7729H19.8215C17.1689 99.7729 14.756 100.859 13.0057 102.609C11.2562 104.359 10.1696 106.772 10.1696 109.425C10.1696 112.078 11.2562 114.491 13.0057 116.241C14.7556 117.99 17.1689 119.077 19.8215 119.077H85.0369C87.6896 119.077 90.1028 117.99 91.8528 116.241C93.6023 114.491 94.6889 112.078 94.6889 109.425C94.6889 106.772 93.6023 104.359 91.8528 102.609C90.1024 100.859 87.6896 99.7729 85.0369 99.7729Z" fill="#FF7900"/>
<path fill-rule="evenodd" clip-rule="evenodd" d="M81.8931 109.675C81.8931 109.88 81.9178 110.104 81.9663 110.349C82.015 110.593 82.1071 110.818 82.2425 111.022C82.3779 111.227 82.562 111.401 82.7947 111.542C83.0271 111.684 83.333 111.756 83.7119 111.756H86.2751C86.6431 111.756 86.9465 111.684 87.1844 111.542C87.4225 111.401 87.6094 111.227 87.7447 111.022C87.8799 110.818 87.9722 110.593 88.0207 110.349C88.0695 110.104 88.094 109.88 88.094 109.675V106.793C88.094 106.565 88.1699 106.372 88.3212 106.213C88.4727 106.054 88.6568 105.974 88.8734 105.974C89.0899 105.974 89.274 106.054 89.4253 106.213C89.5768 106.372 89.6527 106.566 89.6527 106.793V109.675C89.6527 110.107 89.5852 110.542 89.4498 110.98C89.3144 111.418 89.1169 111.816 88.8573 112.173C88.5976 112.532 88.2833 112.824 87.9153 113.052C87.547 113.279 87.1298 113.393 86.6649 113.393H83.1598C82.716 113.393 82.3207 113.242 81.9745 113.009C81.6284 112.776 81.3332 112.483 81.0894 112.131C80.8458 111.778 80.659 111.386 80.5291 110.954C80.3991 110.522 80.3343 110.096 80.3343 109.675V106.793C80.3343 106.565 80.41 106.372 80.5615 106.213C80.7132 106.054 80.8973 105.974 81.1137 105.974C81.3304 105.974 81.5144 106.054 81.6658 106.213C81.8175 106.372 81.8931 106.565 81.8931 106.793V109.675ZM76.3763 110.494C76.6688 110.687 76.9666 110.894 77.2697 111.116C77.5727 111.337 77.8786 111.583 78.1954 111.841C78.3115 111.935 78.4172 112.037 78.5038 112.157C78.5902 112.276 78.6338 112.415 78.6338 112.574C78.6338 112.802 78.5582 112.995 78.4065 113.154C78.2546 113.313 78.0707 113.393 77.8541 113.393C77.6704 113.393 77.4918 113.305 77.3019 113.154C76.8638 112.805 76.4033 112.483 75.938 112.165C75.1168 111.603 72.3231 109.771 71.528 110.698C71.4308 110.812 71.3818 110.954 71.3818 111.125V112.574C71.3818 112.801 71.3031 112.995 71.1464 113.154C70.9897 113.313 70.8083 113.393 70.6024 113.393C70.3858 113.393 70.2017 113.313 70.0502 113.154C69.899 112.995 69.8228 112.802 69.8228 112.574V110.937C69.8228 110.653 69.8745 110.382 69.977 110.127C70.0797 109.871 70.2182 109.649 70.3913 109.462C70.5641 109.274 70.7706 109.126 71.0081 109.018C71.2464 108.911 71.5063 108.856 71.7879 108.856H76.5065C76.6688 108.856 76.8126 108.796 76.9369 108.677C77.0609 108.558 77.1235 108.407 77.1235 108.225C77.1235 108.055 77.0609 107.907 76.9369 107.782C76.8126 107.657 76.6681 107.594 76.5065 107.594H70.6024C70.3865 107.594 70.2017 107.515 70.0502 107.355C69.8987 107.197 69.8228 107.003 69.8228 106.776C69.8228 106.548 69.8992 106.355 70.0502 106.196C70.2017 106.037 70.3858 105.957 70.6024 105.957H76.4414C76.7446 105.957 77.0289 106.017 77.294 106.136C77.5589 106.255 77.7918 106.418 77.9922 106.622C78.1922 106.827 78.3496 107.066 78.4632 107.338C78.5768 107.611 78.6338 107.907 78.6338 108.225C78.6338 108.544 78.5768 108.839 78.4632 109.112C78.3496 109.385 78.1925 109.624 77.9922 109.829C77.792 110.033 77.5593 110.195 77.294 110.315C77.0289 110.434 76.7443 110.494 76.4414 110.494H76.3763ZM16.7873 113.393C16.4846 113.393 16.1971 113.333 15.9267 113.214C15.656 113.094 15.4206 112.932 15.2202 112.728C15.02 112.523 14.8602 112.284 14.7412 112.011C14.622 111.739 14.5625 111.443 14.5625 111.125V106.776C14.5625 106.548 14.6382 106.355 14.7897 106.196C14.9414 106.037 15.1255 105.957 15.3419 105.957C15.5479 105.957 15.7292 106.037 15.886 106.196C16.0431 106.355 16.1214 106.548 16.1214 106.776V111.125C16.1214 111.295 16.1839 111.443 16.3084 111.568C16.4328 111.693 16.5761 111.756 16.7386 111.756H21.1687C21.3853 111.756 21.5693 111.835 21.7208 111.994C21.8724 112.153 21.9483 112.347 21.9483 112.574C21.9483 112.802 21.8724 112.995 21.7208 113.154C21.5693 113.313 21.385 113.393 21.1687 113.393H16.7873ZM29.8266 110.494C30.119 110.687 30.4168 110.894 30.7199 111.116C31.0229 111.337 31.3288 111.583 31.6454 111.841C31.7617 111.935 31.8674 112.037 31.954 112.157C32.0404 112.276 32.0839 112.415 32.0839 112.574C32.0839 112.802 32.0082 112.995 31.8565 113.154C31.7048 113.313 31.5209 113.393 31.3043 113.393C31.1206 113.393 30.942 113.305 30.7521 113.154C30.314 112.805 29.8534 112.483 29.3882 112.165C28.5671 111.603 25.7732 109.771 24.9782 110.698C24.881 110.812 24.832 110.954 24.832 111.125V112.574C24.832 112.801 24.7533 112.995 24.5965 113.154C24.4398 113.313 24.2584 113.393 24.0526 113.393C23.836 113.393 23.6519 113.313 23.5004 113.154C23.3491 112.995 23.2729 112.802 23.2729 112.574V110.937C23.2729 110.653 23.3246 110.382 23.4272 110.127C23.5297 109.871 23.6685 109.649 23.8415 109.462C24.0143 109.274 24.2209 109.126 24.4584 109.018C24.6965 108.911 24.9565 108.856 25.238 108.856H29.9567C30.119 108.856 30.2628 108.796 30.3871 108.677C30.5111 108.558 30.5737 108.407 30.5737 108.225C30.5737 108.055 30.5111 107.907 30.3871 107.782C30.2628 107.657 30.1183 107.594 29.9567 107.594H24.0526C23.8366 107.594 23.6519 107.515 23.5004 107.355C23.3489 107.197 23.2729 107.003 23.2729 106.776C23.2729 106.548 23.3493 106.355 23.5004 106.196C23.6519 106.037 23.836 105.957 24.0526 105.957H29.8915C30.1948 105.957 30.4789 106.017 30.7442 106.136C31.0091 106.255 31.242 106.418 31.4424 106.622C31.6424 106.827 31.7998 107.066 31.9134 107.338C32.027 107.611 32.0839 107.907 32.0839 108.225C32.0839 108.544 32.027 108.839 31.9134 109.112C31.7998 109.385 31.6427 109.624 31.4424 109.829C31.2422 110.033 31.0095 110.195 30.7442 110.315C30.4789 110.434 30.1945 110.494 29.8915 110.494H29.8266ZM34.5074 113.086C34.3967 113.325 34.145 113.393 33.9065 113.393C33.6901 113.393 33.5062 113.313 33.3545 113.154C33.2028 112.995 33.1271 112.802 33.1271 112.574C33.1271 112.369 33.2189 112.232 33.2894 112.08L35.6575 106.984C36.0666 106.104 36.5735 105.616 37.5862 105.616C38.7323 105.616 39.0978 106.161 39.5196 107.115C39.7767 107.697 41.9045 112.288 41.9045 112.574C41.9045 112.802 41.8285 112.995 41.677 113.154C41.5256 113.313 41.3417 113.393 41.1249 113.393C40.865 113.393 40.6133 113.313 40.5078 113.069L38.2195 107.765C37.9678 107.178 37.2268 107.206 36.9692 107.765L34.5074 113.086ZM48.3317 111.756C48.7 111.756 49.0032 111.684 49.241 111.542C49.4791 111.4 49.666 111.227 49.8014 111.022C49.9365 110.818 50.0288 110.593 50.0776 110.349C50.1261 110.104 50.1506 109.88 50.1506 109.675C50.1506 109.47 50.1261 109.246 50.0776 109.001C50.0288 108.757 49.9368 108.532 49.8014 108.328C49.6662 108.123 49.4791 107.95 49.241 107.807C49.0032 107.665 48.6998 107.594 48.3317 107.594H43.3401C43.1236 107.594 42.9395 107.515 42.788 107.355C42.6363 107.197 42.5603 107.003 42.5603 106.776C42.5603 106.548 42.6367 106.355 42.788 106.196C42.9397 106.037 43.1236 105.957 43.3401 105.957H48.6728C49.1383 105.957 49.5553 106.071 49.9234 106.298C50.2912 106.525 50.6055 106.818 50.8651 107.176C51.125 107.534 51.3223 107.933 51.4577 108.37C51.5931 108.808 51.6606 109.243 51.6606 109.675C51.6606 110.096 51.5958 110.522 51.4661 110.954C51.3361 111.386 51.1491 111.778 50.9055 112.131C50.6622 112.483 50.3669 112.776 50.0204 113.009C49.6742 113.242 49.2791 113.393 48.8351 113.393H43.3401C43.1236 113.393 42.9395 113.313 42.788 113.154C42.6363 112.995 42.5603 112.802 42.5603 112.574V109.675C42.5603 109.448 42.6363 109.254 42.788 109.095C42.9397 108.936 43.1236 108.856 43.3401 108.856C43.5565 108.856 43.7406 108.936 43.8921 109.095C44.0438 109.254 44.1195 109.448 44.1195 109.675V111.756H48.3317ZM54.404 112.574C54.404 112.802 54.3283 112.995 54.1766 113.154C54.0249 113.313 53.841 113.393 53.6244 113.393C53.4079 113.393 53.224 113.313 53.0723 113.154C52.9208 112.995 52.8448 112.802 52.8448 112.574V106.776C52.8448 106.548 52.9208 106.355 53.0723 106.196C53.224 106.037 53.4079 105.957 53.6244 105.957C53.841 105.957 54.0249 106.037 54.1766 106.196C54.3283 106.355 54.404 106.548 54.404 106.776V112.574ZM65.4464 109.675C65.4464 110.107 65.3784 110.542 65.2432 110.98C65.1083 111.418 64.9103 111.815 64.6507 112.173C64.391 112.532 64.0767 112.824 63.7087 113.052C63.3407 113.279 62.9236 113.393 62.4583 113.393H58.9237C58.4797 113.393 58.0847 113.242 57.7384 113.009C57.3924 112.776 57.0971 112.483 56.8533 112.131C56.6098 111.778 56.4229 111.386 56.293 110.954C56.1631 110.522 56.0982 110.096 56.0982 109.675C56.0982 109.243 56.1658 108.808 56.3012 108.37C56.4366 107.933 56.6341 107.535 56.8937 107.176C57.1538 106.818 57.4677 106.526 57.8357 106.298C58.204 106.071 58.6208 105.957 59.0861 105.957H62.6207C63.0651 105.957 63.4599 106.108 63.8062 106.341C64.1527 106.574 64.4477 106.867 64.691 107.219C64.9346 107.571 65.1217 107.964 65.2514 108.396C65.3811 108.828 65.4464 109.254 65.4464 109.675ZM62.1173 111.756C62.4853 111.756 62.7887 111.684 63.0268 111.542C63.2649 111.401 63.4518 111.227 63.5867 111.022C63.7219 110.818 63.8142 110.593 63.8629 110.349C63.9117 110.104 63.9361 109.88 63.9361 109.675C63.9361 109.47 63.9114 109.246 63.8629 109.001C63.8142 108.757 63.7219 108.532 63.5867 108.328C63.4518 108.123 63.2649 107.949 63.0268 107.807C62.7887 107.665 62.4853 107.594 62.1173 107.594H59.4271C59.0487 107.594 58.7423 107.665 58.5096 107.807C58.2772 107.949 58.0928 108.123 57.9575 108.328C57.8221 108.532 57.7303 108.757 57.6817 109.001C57.6327 109.246 57.6085 109.47 57.6085 109.675C57.6085 109.88 57.6327 110.104 57.6817 110.349C57.7303 110.593 57.8221 110.818 57.9575 111.022C58.0928 111.227 58.2772 111.401 58.5096 111.542C58.7423 111.684 59.0484 111.756 59.4271 111.756H62.1173ZM66.483 112.574C66.483 112.279 66.5807 112.028 66.7755 111.824C66.9703 111.619 67.2084 111.517 67.49 111.517C67.7714 111.517 68.0095 111.619 68.2043 111.824C68.3994 112.028 68.4966 112.279 68.4966 112.574C68.4966 112.87 68.3994 113.12 68.2043 113.325C68.0095 113.529 67.7714 113.632 67.49 113.632C67.2084 113.632 66.9703 113.529 66.7755 113.325C66.5807 113.12 66.483 112.87 66.483 112.574Z" fill="#FF7900"/>
<path fill-rule="evenodd" clip-rule="evenodd" d="M81.893 109.675C81.893 109.88 81.9177 110.104 81.9663 110.349C82.015 110.593 82.1071 110.818 82.2425 111.022C82.3778 111.227 82.562 111.401 82.7946 111.542C83.0271 111.684 83.333 111.756 83.7119 111.756H86.275C86.6431 111.756 86.9465 111.684 87.1844 111.542C87.4225 111.401 87.6093 111.227 87.7447 111.022C87.8799 110.818 87.9719 110.593 88.0207 110.349C88.0694 110.104 88.0939 109.88 88.0939 109.675V106.793C88.0939 106.565 88.1699 106.372 88.3211 106.213C88.4724 106.054 88.6568 105.974 88.8733 105.974C89.0899 105.974 89.274 106.054 89.4253 106.213C89.5767 106.372 89.6529 106.566 89.6529 106.793V109.675C89.6529 110.106 89.5851 110.542 89.4498 110.98C89.3146 111.418 89.1169 111.816 88.8572 112.173C88.5976 112.531 88.2833 112.824 87.9152 113.052C87.5472 113.279 87.1297 113.393 86.6648 113.393H83.1597C82.7159 113.393 82.3207 113.242 81.9744 113.009C81.6284 112.776 81.3331 112.483 81.0894 112.131C80.8458 111.779 80.659 111.386 80.5292 110.954C80.3991 110.522 80.3342 110.096 80.3342 109.675V106.793C80.3342 106.565 80.41 106.372 80.5614 106.213C80.7132 106.054 80.8973 105.974 81.1136 105.974C81.3302 105.974 81.5143 106.054 81.6658 106.213C81.8175 106.372 81.893 106.565 81.893 106.793V109.675Z" fill="#FF7900"/>
<path fill-rule="evenodd" clip-rule="evenodd" d="M66.4829 112.574C66.4829 112.279 66.5806 112.028 66.7754 111.824C66.9702 111.619 67.2083 111.517 67.49 111.517C67.7714 111.517 68.0095 111.619 68.2043 111.824C68.3993 112.028 68.4966 112.279 68.4966 112.574C68.4966 112.87 68.3993 113.12 68.2043 113.325C68.0095 113.529 67.7714 113.632 67.49 113.632C67.2083 113.632 66.9702 113.529 66.7754 113.325C66.5806 113.12 66.4829 112.87 66.4829 112.574Z" fill="#FF7900"/>
<path fill-rule="evenodd" clip-rule="evenodd" d="M65.4463 109.675C65.4463 110.107 65.3783 110.542 65.2434 110.98C65.1082 111.418 64.9103 111.816 64.6506 112.173C64.3907 112.531 64.0767 112.824 63.7086 113.052C63.3406 113.279 62.9236 113.393 62.4582 113.393H58.9236C58.4796 113.393 58.0846 113.242 57.7383 113.009C57.3923 112.776 57.097 112.483 56.8533 112.131C56.6097 111.779 56.4229 111.386 56.2929 110.954C56.163 110.522 56.0981 110.096 56.0981 109.675C56.0981 109.243 56.1657 108.808 56.3011 108.37C56.4365 107.933 56.634 107.535 56.8936 107.176C57.1537 106.818 57.4676 106.526 57.8356 106.298C58.2039 106.071 58.6207 105.957 59.086 105.957H62.6206C63.0651 105.957 63.4599 106.108 63.8061 106.341C64.1524 106.574 64.4477 106.867 64.691 107.219C64.9345 107.571 65.1216 107.964 65.2513 108.396C65.3813 108.828 65.4463 109.254 65.4463 109.675ZM62.1172 111.756C62.4852 111.756 62.7886 111.684 63.0267 111.542C63.2649 111.401 63.4517 111.227 63.5866 111.022C63.7218 110.818 63.8143 110.593 63.8628 110.349C63.9116 110.104 63.9361 109.88 63.9361 109.675C63.9361 109.47 63.9114 109.246 63.8628 109.001C63.8143 108.757 63.7218 108.532 63.5866 108.328C63.4517 108.123 63.2649 107.949 63.0267 107.807C62.7886 107.665 62.4852 107.595 62.1172 107.595H59.4271C59.0486 107.595 58.7422 107.665 58.5096 107.807C58.2771 107.949 58.0928 108.123 57.9574 108.328C57.822 108.532 57.7302 108.757 57.6817 109.001C57.6327 109.246 57.6084 109.47 57.6084 109.675C57.6084 109.88 57.6327 110.104 57.6817 110.349C57.7302 110.593 57.822 110.818 57.9574 111.022C58.0928 111.227 58.2771 111.401 58.5096 111.542C58.7422 111.684 59.0484 111.756 59.4271 111.756H62.1172Z" fill="#FF7900"/>
<path fill-rule="evenodd" clip-rule="evenodd" d="M54.404 112.574C54.404 112.802 54.328 112.995 54.1763 113.154C54.0248 113.313 53.8409 113.393 53.6243 113.393C53.4078 113.393 53.2239 113.313 53.0722 113.154C52.9207 112.995 52.8447 112.802 52.8447 112.574V106.776C52.8447 106.548 52.9207 106.355 53.0722 106.196C53.2239 106.037 53.4078 105.957 53.6243 105.957C53.8409 105.957 54.0248 106.037 54.1763 106.196C54.328 106.355 54.404 106.548 54.404 106.776V112.574Z" fill="#FF7900"/>
<path fill-rule="evenodd" clip-rule="evenodd" d="M48.3319 111.756C48.7 111.756 49.0032 111.684 49.241 111.542C49.4792 111.4 49.666 111.227 49.8014 111.022C49.9365 110.818 50.0288 110.593 50.0776 110.349C50.1261 110.105 50.1506 109.88 50.1506 109.675C50.1506 109.47 50.1261 109.246 50.0776 109.001C50.0288 108.757 49.9368 108.532 49.8014 108.328C49.6662 108.123 49.4792 107.95 49.241 107.807C49.0032 107.665 48.6998 107.595 48.3319 107.595H43.3401C43.1236 107.595 42.9395 107.515 42.788 107.356C42.6363 107.197 42.5603 107.003 42.5603 106.776C42.5603 106.548 42.6365 106.355 42.788 106.196C42.9397 106.037 43.1234 105.957 43.3401 105.957H48.6728C49.1383 105.957 49.5553 106.071 49.9234 106.298C50.2912 106.525 50.6055 106.818 50.8651 107.176C51.1248 107.534 51.3223 107.933 51.4577 108.37C51.5931 108.808 51.6606 109.243 51.6606 109.675C51.6606 110.096 51.5958 110.522 51.4661 110.954C51.3361 111.386 51.1493 111.779 50.9055 112.131C50.6622 112.483 50.3669 112.776 50.0204 113.009C49.6742 113.242 49.2791 113.393 48.8351 113.393H43.3401C43.1236 113.393 42.9395 113.313 42.788 113.154C42.6363 112.995 42.5603 112.802 42.5603 112.574V109.675C42.5603 109.448 42.6363 109.254 42.788 109.095C42.9397 108.936 43.1234 108.856 43.3401 108.856C43.5565 108.856 43.7406 108.936 43.8921 109.095C44.0438 109.254 44.1195 109.448 44.1195 109.675V111.756H48.3319Z" fill="#FF7900"/>
<path fill-rule="evenodd" clip-rule="evenodd" d="M34.5073 113.086C34.3966 113.325 34.1447 113.393 33.9063 113.393C33.69 113.393 33.5061 113.313 33.3544 113.154C33.2027 112.995 33.127 112.802 33.127 112.574C33.127 112.369 33.2188 112.232 33.2893 112.08L35.6574 106.984C36.0665 106.104 36.5733 105.616 37.5861 105.616C38.7321 105.616 39.0977 106.161 39.5195 107.115C39.7766 107.697 41.9044 112.288 41.9044 112.574C41.9044 112.802 41.8286 112.995 41.6769 113.154C41.5255 113.313 41.3415 113.393 41.1248 113.393C40.8649 113.393 40.6132 113.313 40.5077 113.069L38.2194 107.765C37.9677 107.178 37.2267 107.206 36.969 107.765L34.5073 113.086Z" fill="#FF7900"/>
<path fill-rule="evenodd" clip-rule="evenodd" d="M29.8266 110.494C30.1191 110.687 30.4168 110.894 30.72 111.116C31.0229 111.338 31.3289 111.583 31.6454 111.841C31.7617 111.935 31.8674 112.037 31.954 112.156C32.0404 112.276 32.0838 112.415 32.0838 112.574C32.0838 112.802 32.0082 112.995 31.8565 113.154C31.7048 113.313 31.5209 113.393 31.3044 113.393C31.1207 113.393 30.942 113.305 30.7522 113.154C30.3141 112.805 29.8534 112.483 29.3883 112.165C28.5671 111.603 25.7732 109.771 24.9782 110.698C24.881 110.812 24.8321 110.954 24.8321 111.125V112.574C24.8321 112.801 24.7533 112.995 24.5965 113.154C24.4399 113.313 24.2584 113.393 24.0526 113.393C23.836 113.393 23.6519 113.313 23.5004 113.154C23.3491 112.995 23.2729 112.802 23.2729 112.574V110.937C23.2729 110.653 23.3247 110.382 23.4272 110.127C23.5298 109.871 23.6685 109.649 23.8415 109.462C24.0143 109.274 24.2209 109.126 24.4584 109.018C24.6965 108.911 24.9565 108.856 25.2381 108.856H29.9567C30.1191 108.856 30.2628 108.796 30.3871 108.677C30.5111 108.558 30.5737 108.407 30.5737 108.225C30.5737 108.055 30.5111 107.907 30.3871 107.782C30.2628 107.657 30.1184 107.595 29.9567 107.595H24.0526C23.8366 107.595 23.6519 107.515 23.5004 107.356C23.3489 107.197 23.2729 107.003 23.2729 106.776C23.2729 106.548 23.3493 106.355 23.5004 106.196C23.6519 106.037 23.836 105.957 24.0526 105.957H29.8915C30.1948 105.957 30.4789 106.017 30.7442 106.136C31.0091 106.255 31.242 106.418 31.4425 106.622C31.6425 106.827 31.7998 107.066 31.9135 107.338C32.0271 107.612 32.0838 107.907 32.0838 108.225C32.0838 108.544 32.0271 108.839 31.9135 109.112C31.7998 109.385 31.6427 109.624 31.4425 109.829C31.2422 110.033 31.0096 110.195 30.7442 110.315C30.4789 110.434 30.1946 110.494 29.8915 110.494H29.8266Z" fill="#FF7900"/>
<path fill-rule="evenodd" clip-rule="evenodd" d="M16.7874 113.393C16.4846 113.393 16.1971 113.333 15.9267 113.214C15.656 113.094 15.4207 112.932 15.2202 112.728C15.02 112.523 14.8602 112.284 14.7413 112.011C14.6221 111.739 14.5625 111.443 14.5625 111.125V106.776C14.5625 106.548 14.6383 106.355 14.7898 106.196C14.9415 106.037 15.1255 105.957 15.342 105.957C15.5479 105.957 15.7292 106.037 15.886 106.196C16.0431 106.355 16.1214 106.548 16.1214 106.776V111.125C16.1214 111.295 16.1839 111.443 16.3084 111.568C16.4329 111.693 16.5761 111.756 16.7387 111.756H21.1687C21.3853 111.756 21.5694 111.835 21.7209 111.994C21.8724 112.154 21.9484 112.347 21.9484 112.574C21.9484 112.802 21.8724 112.995 21.7209 113.154C21.5694 113.313 21.3851 113.393 21.1687 113.393H16.7874Z" fill="#FF7900"/>
<path fill-rule="evenodd" clip-rule="evenodd" d="M76.3765 110.494C76.6688 110.687 76.9668 110.894 77.2697 111.116C77.5727 111.338 77.8786 111.583 78.1954 111.841C78.3115 111.935 78.4172 112.037 78.5038 112.156C78.5902 112.276 78.6337 112.415 78.6337 112.574C78.6337 112.802 78.5582 112.995 78.4063 113.154C78.2546 113.313 78.0707 113.393 77.8541 113.393C77.6704 113.393 77.4917 113.305 77.3019 113.154C76.8638 112.805 76.4033 112.483 75.9382 112.165C75.1168 111.603 72.3231 109.771 71.528 110.698C71.4307 110.812 71.3818 110.954 71.3818 111.125V112.574C71.3818 112.801 71.3031 112.995 71.1464 113.154C70.9897 113.313 70.8083 113.393 70.6024 113.393C70.3858 113.393 70.2017 113.313 70.0502 113.154C69.8989 112.995 69.8228 112.802 69.8228 112.574V110.937C69.8228 110.653 69.8745 110.382 69.977 110.127C70.0797 109.871 70.2182 109.649 70.3913 109.462C70.564 109.274 70.7706 109.126 71.0083 109.018C71.2464 108.911 71.5063 108.856 71.7879 108.856H76.5064C76.6688 108.856 76.8126 108.796 76.9369 108.677C77.0609 108.558 77.1235 108.407 77.1235 108.225C77.1235 108.055 77.0609 107.907 76.9369 107.782C76.8126 107.657 76.6681 107.595 76.5064 107.595H70.6024C70.3865 107.595 70.2017 107.515 70.0502 107.356C69.8987 107.197 69.8228 107.003 69.8228 106.776C69.8228 106.548 69.8992 106.355 70.0502 106.196C70.2017 106.037 70.3858 105.957 70.6024 105.957H76.4414C76.7446 105.957 77.0289 106.017 77.294 106.136C77.5589 106.255 77.7918 106.418 77.9922 106.622C78.1922 106.827 78.3496 107.066 78.4632 107.338C78.5768 107.612 78.6337 107.907 78.6337 108.225C78.6337 108.544 78.5768 108.839 78.4632 109.112C78.3496 109.385 78.1925 109.624 77.9922 109.829C77.792 110.033 77.5593 110.195 77.294 110.315C77.0289 110.434 76.7443 110.494 76.4414 110.494H76.3765Z" fill="#FF7900"/>
<path fill-rule="evenodd" clip-rule="evenodd" d="M81.893 109.675C81.893 109.88 81.9177 110.104 81.9663 110.349C82.015 110.593 82.1071 110.818 82.2425 111.022C82.3778 111.227 82.562 111.401 82.7946 111.542C83.0271 111.684 83.333 111.756 83.7119 111.756H86.275C86.6431 111.756 86.9465 111.684 87.1844 111.542C87.4225 111.401 87.6093 111.227 87.7447 111.022C87.8799 110.818 87.9719 110.593 88.0207 110.349C88.0694 110.104 88.0939 109.88 88.0939 109.675V106.793C88.0939 106.565 88.1699 106.372 88.3211 106.213C88.4724 106.054 88.6568 105.974 88.8733 105.974C89.0899 105.974 89.274 106.054 89.4253 106.213C89.5767 106.372 89.6529 106.566 89.6529 106.793V109.675C89.6529 110.106 89.5851 110.542 89.4498 110.98C89.3146 111.418 89.1169 111.816 88.8572 112.173C88.5976 112.531 88.2833 112.824 87.9152 113.052C87.5472 113.279 87.1297 113.393 86.6648 113.393H83.1597C82.7159 113.393 82.3207 113.242 81.9744 113.009C81.6284 112.776 81.3331 112.483 81.0894 112.131C80.8458 111.779 80.659 111.386 80.5292 110.954C80.3991 110.522 80.3342 110.096 80.3342 109.675V106.793C80.3342 106.565 80.41 106.372 80.5614 106.213C80.7132 106.054 80.8973 105.974 81.1136 105.974C81.3302 105.974 81.5143 106.054 81.6658 106.213C81.8175 106.372 81.893 106.565 81.893 106.793V109.675Z" fill="#FF7900"/>
<path fill-rule="evenodd" clip-rule="evenodd" d="M66.4829 112.574C66.4829 112.279 66.5806 112.028 66.7754 111.824C66.9702 111.619 67.2083 111.517 67.49 111.517C67.7714 111.517 68.0095 111.619 68.2043 111.824C68.3993 112.028 68.4966 112.279 68.4966 112.574C68.4966 112.87 68.3993 113.12 68.2043 113.325C68.0095 113.529 67.7714 113.632 67.49 113.632C67.2083 113.632 66.9702 113.529 66.7754 113.325C66.5806 113.12 66.4829 112.87 66.4829 112.574Z" fill="#FF7900"/>
<path fill-rule="evenodd" clip-rule="evenodd" d="M65.4463 109.675C65.4463 110.107 65.3783 110.542 65.2434 110.98C65.1082 111.418 64.9103 111.816 64.6506 112.173C64.3907 112.531 64.0767 112.824 63.7086 113.052C63.3406 113.279 62.9236 113.393 62.4582 113.393H58.9236C58.4796 113.393 58.0846 113.242 57.7383 113.009C57.3923 112.776 57.097 112.483 56.8533 112.131C56.6097 111.779 56.4229 111.386 56.2929 110.954C56.163 110.522 56.0981 110.096 56.0981 109.675C56.0981 109.243 56.1657 108.808 56.3011 108.37C56.4365 107.933 56.634 107.535 56.8936 107.176C57.1537 106.818 57.4676 106.526 57.8356 106.298C58.2039 106.071 58.6207 105.957 59.086 105.957H62.6206C63.0651 105.957 63.4599 106.108 63.8061 106.341C64.1524 106.574 64.4477 106.867 64.691 107.219C64.9345 107.571 65.1216 107.964 65.2513 108.396C65.3813 108.828 65.4463 109.254 65.4463 109.675ZM62.1172 111.756C62.4852 111.756 62.7886 111.684 63.0267 111.542C63.2649 111.401 63.4517 111.227 63.5866 111.022C63.7218 110.818 63.8143 110.593 63.8628 110.349C63.9116 110.104 63.9361 109.88 63.9361 109.675C63.9361 109.47 63.9114 109.246 63.8628 109.001C63.8143 108.757 63.7218 108.532 63.5866 108.328C63.4517 108.123 63.2649 107.949 63.0267 107.807C62.7886 107.665 62.4852 107.595 62.1172 107.595H59.4271C59.0486 107.595 58.7422 107.665 58.5096 107.807C58.2771 107.949 58.0928 108.123 57.9574 108.328C57.822 108.532 57.7302 108.757 57.6817 109.001C57.6327 109.246 57.6084 109.47 57.6084 109.675C57.6084 109.88 57.6327 110.104 57.6817 110.349C57.7302 110.593 57.822 110.818 57.9574 111.022C58.0928 111.227 58.2771 111.401 58.5096 111.542C58.7422 111.684 59.0484 111.756 59.4271 111.756H62.1172Z" fill="#FF7900"/>
<path fill-rule="evenodd" clip-rule="evenodd" d="M54.404 112.574C54.404 112.802 54.328 112.995 54.1763 113.154C54.0248 113.313 53.8409 113.393 53.6243 113.393C53.4078 113.393 53.2239 113.313 53.0722 113.154C52.9207 112.995 52.8447 112.802 52.8447 112.574V106.776C52.8447 106.548 52.9207 106.355 53.0722 106.196C53.2239 106.037 53.4078 105.957 53.6243 105.957C53.8409 105.957 54.0248 106.037 54.1763 106.196C54.328 106.355 54.404 106.548 54.404 106.776V112.574Z" fill="#FF7900"/>
<path fill-rule="evenodd" clip-rule="evenodd" d="M48.3319 111.756C48.7 111.756 49.0032 111.684 49.241 111.542C49.4792 111.4 49.666 111.227 49.8014 111.022C49.9365 110.818 50.0288 110.593 50.0776 110.349C50.1261 110.105 50.1506 109.88 50.1506 109.675C50.1506 109.47 50.1261 109.246 50.0776 109.001C50.0288 108.757 49.9368 108.532 49.8014 108.328C49.6662 108.123 49.4792 107.95 49.241 107.807C49.0032 107.665 48.6998 107.595 48.3319 107.595H43.3401C43.1236 107.595 42.9395 107.515 42.788 107.356C42.6363 107.197 42.5603 107.003 42.5603 106.776C42.5603 106.548 42.6365 106.355 42.788 106.196C42.9397 106.037 43.1234 105.957 43.3401 105.957H48.6728C49.1383 105.957 49.5553 106.071 49.9234 106.298C50.2912 106.525 50.6055 106.818 50.8651 107.176C51.1248 107.534 51.3223 107.933 51.4577 108.37C51.5931 108.808 51.6606 109.243 51.6606 109.675C51.6606 110.096 51.5958 110.522 51.4661 110.954C51.3361 111.386 51.1493 111.779 50.9055 112.131C50.6622 112.483 50.3669 112.776 50.0204 113.009C49.6742 113.242 49.2791 113.393 48.8351 113.393H43.3401C43.1236 113.393 42.9395 113.313 42.788 113.154C42.6363 112.995 42.5603 112.802 42.5603 112.574V109.675C42.5603 109.448 42.6363 109.254 42.788 109.095C42.9397 108.936 43.1234 108.856 43.3401 108.856C43.5565 108.856 43.7406 108.936 43.8921 109.095C44.0438 109.254 44.1195 109.448 44.1195 109.675V111.756H48.3319Z" fill="#FF7900"/>
<path fill-rule="evenodd" clip-rule="evenodd" d="M34.5073 113.086C34.3966 113.325 34.1447 113.393 33.9063 113.393C33.69 113.393 33.5061 113.313 33.3544 113.154C33.2027 112.995 33.127 112.802 33.127 112.574C33.127 112.369 33.2188 112.232 33.2893 112.08L35.6574 106.984C36.0665 106.104 36.5733 105.616 37.5861 105.616C38.7321 105.616 39.0977 106.161 39.5195 107.115C39.7766 107.697 41.9044 112.288 41.9044 112.574C41.9044 112.802 41.8286 112.995 41.6769 113.154C41.5255 113.313 41.3415 113.393 41.1248 113.393C40.8649 113.393 40.6132 113.313 40.5077 113.069L38.2194 107.765C37.9677 107.178 37.2267 107.206 36.969 107.765L34.5073 113.086Z" fill="#FF7900"/>
<path fill-rule="evenodd" clip-rule="evenodd" d="M29.8266 110.494C30.1191 110.687 30.4168 110.894 30.72 111.116C31.0229 111.338 31.3289 111.583 31.6454 111.841C31.7617 111.935 31.8674 112.037 31.954 112.156C32.0404 112.276 32.0838 112.415 32.0838 112.574C32.0838 112.802 32.0082 112.995 31.8565 113.154C31.7048 113.313 31.5209 113.393 31.3044 113.393C31.1207 113.393 30.942 113.305 30.7522 113.154C30.3141 112.805 29.8534 112.483 29.3883 112.165C28.5671 111.603 25.7732 109.771 24.9782 110.698C24.881 110.812 24.8321 110.954 24.8321 111.125V112.574C24.8321 112.801 24.7533 112.995 24.5965 113.154C24.4399 113.313 24.2584 113.393 24.0526 113.393C23.836 113.393 23.6519 113.313 23.5004 113.154C23.3491 112.995 23.2729 112.802 23.2729 112.574V110.937C23.2729 110.653 23.3247 110.382 23.4272 110.127C23.5298 109.871 23.6685 109.649 23.8415 109.462C24.0143 109.274 24.2209 109.126 24.4584 109.018C24.6965 108.911 24.9565 108.856 25.2381 108.856H29.9567C30.1191 108.856 30.2628 108.796 30.3871 108.677C30.5111 108.558 30.5737 108.407 30.5737 108.225C30.5737 108.055 30.5111 107.907 30.3871 107.782C30.2628 107.657 30.1184 107.595 29.9567 107.595H24.0526C23.8366 107.595 23.6519 107.515 23.5004 107.356C23.3489 107.197 23.2729 107.003 23.2729 106.776C23.2729 106.548 23.3493 106.355 23.5004 106.196C23.6519 106.037 23.836 105.957 24.0526 105.957H29.8915C30.1948 105.957 30.4789 106.017 30.7442 106.136C31.0091 106.255 31.242 106.418 31.4425 106.622C31.6425 106.827 31.7998 107.066 31.9135 107.338C32.0271 107.612 32.0838 107.907 32.0838 108.225C32.0838 108.544 32.0271 108.839 31.9135 109.112C31.7998 109.385 31.6427 109.624 31.4425 109.829C31.2422 110.033 31.0096 110.195 30.7442 110.315C30.4789 110.434 30.1946 110.494 29.8915 110.494H29.8266Z" fill="#FF7900"/>
<path fill-rule="evenodd" clip-rule="evenodd" d="M16.7874 113.393C16.4846 113.393 16.1971 113.333 15.9267 113.214C15.656 113.094 15.4207 112.932 15.2202 112.728C15.02 112.523 14.8602 112.284 14.7413 112.011C14.6221 111.739 14.5625 111.443 14.5625 111.125V106.776C14.5625 106.548 14.6383 106.355 14.7898 106.196C14.9415 106.037 15.1255 105.957 15.342 105.957C15.5479 105.957 15.7292 106.037 15.886 106.196C16.0431 106.355 16.1214 106.548 16.1214 106.776V111.125C16.1214 111.295 16.1839 111.443 16.3084 111.568C16.4329 111.693 16.5761 111.756 16.7387 111.756H21.1687C21.3853 111.756 21.5694 111.835 21.7209 111.994C21.8724 112.154 21.9484 112.347 21.9484 112.574C21.9484 112.802 21.8724 112.995 21.7209 113.154C21.5694 113.313 21.3851 113.393 21.1687 113.393H16.7874Z" fill="#FF7900"/>
<path fill-rule="evenodd" clip-rule="evenodd" d="M76.3765 110.494C76.6688 110.687 76.9668 110.894 77.2697 111.116C77.5727 111.338 77.8786 111.583 78.1954 111.841C78.3115 111.935 78.4172 112.037 78.5038 112.156C78.5902 112.276 78.6337 112.415 78.6337 112.574C78.6337 112.802 78.5582 112.995 78.4063 113.154C78.2546 113.313 78.0707 113.393 77.8541 113.393C77.6704 113.393 77.4917 113.305 77.3019 113.154C76.8638 112.805 76.4033 112.483 75.9382 112.165C75.1168 111.603 72.3231 109.771 71.528 110.698C71.4307 110.812 71.3818 110.954 71.3818 111.125V112.574C71.3818 112.801 71.3031 112.995 71.1464 113.154C70.9897 113.313 70.8083 113.393 70.6024 113.393C70.3858 113.393 70.2017 113.313 70.0502 113.154C69.8989 112.995 69.8228 112.802 69.8228 112.574V110.937C69.8228 110.653 69.8745 110.382 69.977 110.127C70.0797 109.871 70.2182 109.649 70.3913 109.462C70.564 109.274 70.7706 109.126 71.0083 109.018C71.2464 108.911 71.5063 108.856 71.7879 108.856H76.5064C76.6688 108.856 76.8126 108.796 76.9369 108.677C77.0609 108.558 77.1235 108.407 77.1235 108.225C77.1235 108.055 77.0609 107.907 76.9369 107.782C76.8126 107.657 76.6681 107.595 76.5064 107.595H70.6024C70.3865 107.595 70.2017 107.515 70.0502 107.356C69.8987 107.197 69.8228 107.003 69.8228 106.776C69.8228 106.548 69.8992 106.355 70.0502 106.196C70.2017 106.037 70.3858 105.957 70.6024 105.957H76.4414C76.7446 105.957 77.0289 106.017 77.294 106.136C77.5589 106.255 77.7918 106.418 77.9922 106.622C78.1922 106.827 78.3496 107.066 78.4632 107.338C78.5768 107.612 78.6337 107.907 78.6337 108.225C78.6337 108.544 78.5768 108.839 78.4632 109.112C78.3496 109.385 78.1925 109.624 77.9922 109.829C77.792 110.033 77.5593 110.195 77.294 110.315C77.0289 110.434 76.7443 110.494 76.4414 110.494H76.3765Z" fill="#FF7900"/>
</svg>
