<svg width="342" height="77" viewBox="0 0 342 77" fill="none" xmlns="http://www.w3.org/2000/svg">
<path fill-rule="evenodd" clip-rule="evenodd" d="M11.1204 30.2593C9.0012 40.9003 6.94085 51.6391 4.85959 62.2079L37.5223 62.4473C50.7759 63.1779 50.4608 47.1099 38.4891 47.1099C36.5204 47.1099 34.4018 47.1456 32.1746 47.1099C25.3554 47.0007 27.1787 44.4438 29.8353 30.9783C31.2538 17.2242 12.4685 17.1111 11.1204 30.2593ZM5.90861 48.8861C7.16753 42.4234 8.43058 35.9421 9.60136 30.0618C10.202 24.4071 13.6737 20.9048 17.6668 19.588C19.1461 19.1001 20.7005 18.9154 22.2093 19.0355C23.7354 19.157 25.2132 19.588 26.5214 20.3296C29.7203 22.1431 31.9153 25.7423 31.3608 31.1185L31.3517 31.2061L31.3414 31.2588C30.9551 33.2165 30.5377 35.1583 30.1743 36.8506C29.4845 40.0607 29.0011 42.3092 28.9782 43.7363C28.9556 45.1456 29.7791 45.5419 32.2117 45.5807C33.7396 45.6051 35.1606 45.597 36.5205 45.5892C36.8559 45.5874 37.1619 45.5853 38.5008 45.5853V45.5812C43.4295 45.5812 46.6808 47.9901 48.1345 51.0568C48.7423 52.3394 49.0325 53.7323 48.9971 55.1106C48.9614 56.5056 48.5974 57.8904 47.8982 59.1398C46.2541 62.0779 42.7995 64.2536 37.475 63.9761L3 63.7233L3.35356 61.9272C4.70746 55.0514 5.30016 52.0092 5.90861 48.8861Z" fill="#FF7900"/>
<path d="M103.576 19.136C104.856 19.136 105.837 19.3067 106.52 19.648C107.203 19.9893 107.544 20.672 107.544 21.696C107.544 22.0373 107.48 22.464 107.352 22.976L105.944 29.184L100.568 52.736L98.84 60.16C98.4987 61.6533 97.8587 62.6773 96.92 63.232C95.9813 63.7867 94.7867 64.0427 93.336 64L69.784 63.936L71.448 56.576C71.7893 55.0827 72.4293 54.0587 73.368 53.504C74.3067 52.9493 75.5013 52.6933 76.952 52.736H87.576L92.888 29.184L76.76 29.248L79 19.2L103.576 19.136ZM53.72 64L63.768 19.2H76.76L66.84 64H53.72ZM132.203 19.2L129.835 29.568H116.779L119.211 19.2H132.203ZM129.259 32L121.899 64H108.843L116.267 32H129.259ZM139.354 38.336C139.909 35.9893 140.911 34.3467 142.362 33.408C143.813 32.4693 145.946 32 148.762 32H170.01C171.29 32 172.271 32.192 172.954 32.576C173.637 32.9173 173.978 33.6 173.978 34.624C173.978 35.136 173.935 35.5413 173.85 35.84L172.314 43.072L160.41 43.2H156.57C155.162 43.2 154.074 43.2853 153.306 43.456C152.581 43.6267 151.983 43.9893 151.514 44.544C151.087 45.056 150.746 45.9093 150.49 47.104L146.65 64H133.53L139.354 38.336ZM224.804 32C226.084 32 227.065 32.1707 227.748 32.512C228.43 32.8533 228.772 33.536 228.772 34.56C228.772 34.9013 228.708 35.328 228.58 35.84L227.3 41.472L225.7 48.576C225.358 50.0693 224.718 51.0933 223.78 51.648C222.841 52.2027 221.646 52.4587 220.196 52.416L197.668 52.48L198.5 49.216C198.884 47.7227 199.524 46.6987 200.42 46.144C201.358 45.5893 202.553 45.3333 204.004 45.376H215.396L216.292 41.472L195.62 41.536L192.292 55.744L224.1 55.68L223.076 60.16C222.734 61.6533 222.094 62.6773 221.156 63.232C220.217 63.7867 219.022 64.0427 217.572 64H190.372H186.724C184.761 64 183.31 63.9573 182.372 63.872C181.476 63.744 180.814 63.488 180.388 63.104C179.961 62.72 179.748 62.1227 179.748 61.312C179.748 60.4587 179.94 59.2427 180.324 57.664L183.972 41.536L185.316 35.84C185.657 34.3467 186.276 33.344 187.172 32.832C188.11 32.2773 189.326 32 190.82 32H224.804ZM282.848 32L280.48 43.2L248.736 43.264L243.872 64H240.224C238.261 64 236.81 63.9573 235.872 63.872C234.976 63.744 234.314 63.488 233.888 63.104C233.461 62.72 233.248 62.1227 233.248 61.312C233.248 60.4587 233.44 59.2427 233.824 57.664L237.088 43.264L238.816 35.84C239.157 34.3467 239.797 33.3227 240.736 32.768C241.674 32.2133 242.869 31.9573 244.32 32H282.848ZM246.88 64L249.44 52.8L278.304 52.736L276.576 60.16C276.234 61.6533 275.594 62.6773 274.656 63.232C273.717 63.7867 272.522 64.0427 271.072 64H246.88ZM326.383 64H296.239C293.295 64 291.183 63.4453 289.903 62.336C288.623 61.2267 287.983 59.6053 287.983 57.472C287.983 56.3627 288.196 54.912 288.623 53.12L296.239 19.2H309.231L301.999 52.032H329.007L326.383 64ZM306.799 44.672L309.679 32H326.639L330.607 44.672H306.799Z" fill="#FF7900"/>
</svg>
