<svg width="460" height="193" viewBox="0 0 460 193" fill="none" xmlns="http://www.w3.org/2000/svg">
<path d="M0 111.085H158.257" stroke="#FF7900"/>
<path d="M24.9951 112.142V76.1719" stroke="#FF7900" stroke-width="2"/>
<path d="M37.6556 110.027V46.5498" stroke="#FF7900" stroke-width="2"/>
<path d="M50.3153 112.143V33.8545" stroke="#FF7900" stroke-width="2"/>
<path d="M62.9763 112.143V22.2168" stroke="#FF7900" stroke-width="2"/>
<path d="M75.6366 112.142V48.665" stroke="#FF7900" stroke-width="2"/>
<path d="M88.2971 170.331V88.8682" stroke="#FF7900" stroke-width="2"/>
<path d="M100.959 191.49V100.506" stroke="#FF7900" stroke-width="2"/>
<path d="M113.619 128.012V62.4189" stroke="#FF7900" stroke-width="2"/>
<path d="M126.278 121.664V56.0713" stroke="#FF7900" stroke-width="2"/>
<path d="M138.941 139.65V74.0566" stroke="#FF7900" stroke-width="2"/>
<path fill-rule="evenodd" clip-rule="evenodd" d="M180.295 128.346C183.36 112.231 186.457 96.0817 189.285 81.413C190.734 67.3298 199.184 58.5836 208.881 55.3124C212.433 54.0908 216.19 53.622 219.926 53.9351C223.604 54.2024 227.179 55.2959 230.396 57.1373C238.175 61.6827 243.528 70.6354 242.181 84.03V84.3744C241.272 89.2639 240.229 94.1192 239.353 98.32C237.669 106.343 236.524 111.921 236.458 115.502C236.39 119.083 238.41 119.979 244.303 120.082C248.039 120.151 251.475 120.117 254.774 120.117H259.589C271.575 120.117 279.488 126.142 283.023 133.787C284.493 136.951 285.207 140.427 285.107 143.929C285.008 147.431 284.098 150.859 282.451 153.93C278.444 161.23 270.06 166.671 257.097 165.982L173.225 165.328L174.101 160.852C177.4 143.703 178.847 136.128 180.295 128.346ZM192.99 81.8952C187.837 108.409 182.822 135.198 177.77 161.54L257.165 162.126C289.354 163.95 288.612 123.904 259.488 123.904C254.706 123.904 249.555 124.007 244.167 123.904C227.569 123.629 232.013 117.259 238.478 83.6857C241.912 49.4242 196.256 49.1143 192.99 81.8952Z" fill="#FF7900"/>
<path d="M298.579 111.085H460" stroke="#FF7900"/>
<path d="M315.132 118.49V82.5195" stroke="#FF7900" stroke-width="2"/>
<path d="M327.794 123.78V60.3027" stroke="#FF7900" stroke-width="2"/>
<path d="M340.454 112.143V33.8545" stroke="#FF7900" stroke-width="2"/>
<path d="M353.114 111.085V21.1592" stroke="#FF7900" stroke-width="2"/>
<path d="M365.775 112.143V0" stroke="#FF7900" stroke-width="2"/>
<path d="M378.435 129.07V25.3906" stroke="#FF7900" stroke-width="2"/>
<path d="M391.095 191.489V100.505" stroke="#FF7900" stroke-width="2"/>
<path d="M403.757 170.331V92.042" stroke="#FF7900" stroke-width="2"/>
<path d="M416.416 145.997V104.737" stroke="#FF7900" stroke-width="2"/>
<path d="M429.078 160.809V112.143" stroke="#FF7900" stroke-width="2"/>
<path d="M441.738 129.07V80.4043" stroke="#FF7900" stroke-width="2"/>
</svg>
