<svg width="798" height="334" viewBox="0 0 798 334" fill="none" xmlns="http://www.w3.org/2000/svg">
<path d="M0 192.699H274.541" stroke="white"/>
<path d="M43.3608 194.534V132.136" stroke="white" stroke-width="2"/>
<path d="M65.3242 190.863V80.7499" stroke="white" stroke-width="2"/>
<path d="M87.2861 194.534V58.7273" stroke="white" stroke-width="2"/>
<path d="M109.25 194.534V38.5399" stroke="white" stroke-width="2"/>
<path d="M131.213 194.533V84.4199" stroke="white" stroke-width="2"/>
<path d="M153.176 295.472V154.159" stroke="white" stroke-width="2"/>
<path d="M175.142 332.177V174.347" stroke="white" stroke-width="2"/>
<path d="M197.104 222.063V108.278" stroke="white" stroke-width="2"/>
<path d="M219.065 211.051V97.2671" stroke="white" stroke-width="2"/>
<path d="M241.032 242.251V128.466" stroke="white" stroke-width="2"/>
<path fill-rule="evenodd" clip-rule="evenodd" d="M312.773 222.642C318.091 194.687 323.463 166.673 328.369 141.227C330.883 116.797 345.541 101.625 362.364 95.9505C368.525 93.8314 375.043 93.0183 381.523 93.5613C387.905 94.0251 394.107 95.9219 399.688 99.1163C413.182 107.001 422.468 122.531 420.132 145.767V146.364C418.555 154.846 416.745 163.269 415.226 170.556C412.305 184.473 410.318 194.15 410.203 200.362C410.086 206.574 413.589 208.127 423.812 208.306C430.295 208.426 436.255 208.366 441.977 208.366H450.331C471.125 208.366 484.851 218.819 490.983 232.08C493.533 237.569 494.772 243.599 494.6 249.673C494.427 255.748 492.848 261.695 489.991 267.022C483.039 279.685 468.496 289.124 446.008 287.929L300.508 286.795L302.028 279.029C307.75 249.282 310.262 236.142 312.773 222.642ZM334.796 142.064C325.857 188.057 317.156 234.529 308.392 280.223L446.125 281.24C501.966 284.404 500.679 214.937 450.156 214.937C441.86 214.937 432.924 215.116 423.578 214.937C394.783 214.459 402.492 203.408 413.707 145.17C419.664 85.7363 340.461 85.1988 334.796 142.064Z" fill="white"/>
<path d="M517.969 192.698H798" stroke="white"/>
<path d="M546.685 205.545V143.147" stroke="white" stroke-width="2"/>
<path d="M568.65 214.721V104.607" stroke="white" stroke-width="2"/>
<path d="M590.613 194.534V58.7273" stroke="white" stroke-width="2"/>
<path d="M612.576 192.699V36.7048" stroke="white" stroke-width="2"/>
<path d="M634.54 194.534V0" stroke="white" stroke-width="2"/>
<path d="M656.503 223.897V44.045" stroke="white" stroke-width="2"/>
<path d="M678.465 332.176V174.346" stroke="white" stroke-width="2"/>
<path d="M700.431 295.472V159.664" stroke="white" stroke-width="2"/>
<path d="M722.392 253.261V181.687" stroke="white" stroke-width="2"/>
<path d="M744.357 278.955V194.534" stroke="white" stroke-width="2"/>
<path d="M766.319 223.897V139.477" stroke="white" stroke-width="2"/>
</svg>
