<svg width="32" height="32" viewBox="0 0 32 32" fill="none" xmlns="http://www.w3.org/2000/svg">
<g clip-path="url(#clip0_2_239)">
<path fill-rule="evenodd" clip-rule="evenodd" d="M13.6501 8.27617C14.8421 12.5582 12.9301 15.4622 8.87207 16.5102C7.55295 16.8562 6.1718 16.8931 4.83607 16.6182C4.74007 16.5982 6.63607 22.1742 7.88007 25.8382L8.70007 28.2482C8.74292 28.3801 8.75896 28.5193 8.74723 28.6575C8.7355 28.7957 8.69624 28.9302 8.63175 29.053C8.56727 29.1758 8.47888 29.2844 8.37177 29.3726C8.26466 29.4607 8.141 29.5265 8.00807 29.5662L6.82207 29.9462C6.54883 30.0368 6.25092 30.0162 5.99271 29.889C5.73449 29.7617 5.5367 29.538 5.44207 29.2662L0.368067 13.9802C-1.02393 9.70617 1.69207 5.36217 5.49607 4.38017C9.55407 3.33417 12.3001 4.38017 13.6481 8.27617H13.6501ZM11.9141 12.7182C12.7741 12.4942 13.0361 10.7322 12.4981 8.78017C11.9601 6.83017 10.8261 5.43017 9.96607 5.65417C9.10606 5.87817 8.84407 7.64217 9.38207 9.59217C9.92007 11.5422 11.0541 12.9422 11.9141 12.7182ZM18.3501 8.27617C17.1581 12.5582 19.0701 15.4622 23.1281 16.5102C24.4472 16.856 25.8283 16.893 27.1641 16.6182C27.2601 16.5982 25.3641 22.1742 24.1201 25.8382L23.3001 28.2482C23.2572 28.3801 23.2412 28.5193 23.2529 28.6575C23.2646 28.7957 23.3039 28.9302 23.3684 29.053C23.4329 29.1758 23.5213 29.2844 23.6284 29.3726C23.7355 29.4607 23.8591 29.5265 23.9921 29.5662L25.1781 29.9462C25.7561 30.1302 26.3781 29.8262 26.5581 29.2662L31.6301 13.9802C33.0221 9.70617 30.3061 5.36217 26.5021 4.38017C22.4441 3.33417 19.6981 4.38017 18.3501 8.27617ZM20.0861 12.7182C19.2261 12.4942 18.9641 10.7322 19.5021 8.78017C20.0401 6.83017 21.1741 5.43017 22.0341 5.65417C22.8941 5.87817 23.1561 7.64217 22.6181 9.59217C22.0801 11.5422 20.9461 12.9422 20.0861 12.7182Z" fill="white"/>
</g>
<defs>
<clipPath id="clip0_2_239">
<rect width="32" height="32" fill="white"/>
</clipPath>
</defs>
</svg>
